HIERARCHY
ROOT joint_0
{
	OFFSET 0.000000 0.000000 0.000000
	CHANNELS 6 Xposition Yposition Zposition Zrotation Yrotation Xrotation 
	JOINT joint_1
	{
		OFFSET 6.579712 -2.778931 100.531982
		CHANNELS 3 Zrotation Yrotation Xrotation
		JOINT joint_2
		{
			OFFSET -3.313232 -1.302856 91.974976
			CHANNELS 3 Zrotation Yrotation Xrotation
			JOINT joint_3
			{
				OFFSET -3.421509 -1.641846 91.864014
				CHANNELS 3 Zrotation Yrotation Xrotation
				JOINT joint_4
				{
					OFFSET 7.697388 -4.642578 123.278931
					CHANNELS 3 Zrotation Yrotation Xrotation
					JOINT joint_5
					{
						OFFSET 24.842529 -5.941528 79.695068
						CHANNELS 3 Zrotation Yrotation Xrotation
						End Site
						{
							OFFSET 0.000000 0.000000 0.000000
						}
					}
				}
				JOINT joint_6
				{
					OFFSET -0.159668 -29.112976 68.364014
					CHANNELS 3 Zrotation Yrotation Xrotation
					JOINT joint_7
					{
						OFFSET -18.356079 -115.987061 -20.069092
						CHANNELS 3 Zrotation Yrotation Xrotation
						JOINT joint_8
						{
							OFFSET 31.719482 -11.733276 -267.170898
							CHANNELS 3 Zrotation Yrotation Xrotation
							JOINT joint_9
							{
								OFFSET 29.329956 -5.879517 -234.654053
								CHANNELS 3 Zrotation Yrotation Xrotation
								End Site
								{
									OFFSET 0.000000 0.000000 0.000000
								}
							}
						}
					}
				}
				JOINT joint_10
				{
					OFFSET 8.802979 23.897949 69.798950
					CHANNELS 3 Zrotation Yrotation Xrotation
					JOINT joint_11
					{
						OFFSET 21.159058 115.524292 -19.981934
						CHANNELS 3 Zrotation Yrotation Xrotation
						JOINT joint_12
						{
							OFFSET 18.809204 5.403442 -268.593018
							CHANNELS 3 Zrotation Yrotation Xrotation
							JOINT joint_13
							{
								OFFSET 20.807861 0.421265 -235.639038
								CHANNELS 3 Zrotation Yrotation Xrotation
								End Site
								{
									OFFSET 0.000000 0.000000 0.000000
								}
							}
						}
					}
				}
			}
		}
	}
	JOINT joint_14
	{
		OFFSET -9.713379 -79.513916 -99.348022
		CHANNELS 3 Zrotation Yrotation Xrotation
		JOINT joint_15
		{
			OFFSET -40.607788 -6.518372 -502.938019
			CHANNELS 3 Zrotation Yrotation Xrotation
			JOINT joint_16
			{
				OFFSET -19.807617 -7.437378 -399.590012
				CHANNELS 3 Zrotation Yrotation Xrotation
				JOINT joint_17
				{
					OFFSET 171.701660 -44.751282 -77.782000
					CHANNELS 3 Zrotation Yrotation Xrotation
					End Site
					{
						OFFSET 0.000000 0.000000 0.000000
					}
				}
			}
		}
	}
	JOINT joint_18
	{
		OFFSET 17.854858 79.618652 -98.128052
		CHANNELS 3 Zrotation Yrotation Xrotation
		JOINT joint_19
		{
			OFFSET -24.848877 16.861816 -503.722992
			CHANNELS 3 Zrotation Yrotation Xrotation
			JOINT joint_20
			{
				OFFSET -30.162476 14.470093 -398.750008
				CHANNELS 3 Zrotation Yrotation Xrotation
				JOINT joint_21
				{
					OFFSET 176.096680 -10.987549 -80.021000
					CHANNELS 3 Zrotation Yrotation Xrotation
					End Site
					{
						OFFSET 0.000000 0.000000 0.000000
					}
				}
			}
		}
	}
}
MOTION
Frames: 15
Frame Time: 0.016667
-2310.619873 792.831238 1099.191040 4.031695 0.893523 1.861476 -1.627853 -2.431855 -2.145646 -1.502202 0.462179 0.274573 -1.543056 -0.591680 -0.295646 -2.152318 -3.591571 6.065240 0.000000 0.000000 0.000000 0.153461 3.955561 -1.937200 0.087246 3.303015 2.301322 -0.356604 -3.246711 -3.573488 0.000000 0.000000 0.000000 -0.193030 1.869289 2.941599 -0.049638 2.850882 -2.261442 -0.097776 -3.807443 -1.050296 0.000000 0.000000 0.000000 -0.827574 2.080181 -2.442065 -0.983122 -0.695484 0.043631 -0.878003 -3.056892 -1.192563 0.000000 0.000000 0.000000 -0.047859 2.166387 -0.281084 -0.223846 -4.091523 -0.761861 -0.036475 2.310105 0.127953 0.000000 0.000000 0.000000 
-2310.613770 792.995178 1098.913940 3.981752 0.849152 1.824725 -1.634227 -2.453516 -2.124604 -1.508678 0.458705 0.274992 -1.549302 -0.582265 -0.296705 -2.140819 -3.556481 6.039129 0.000000 0.000000 0.000000 0.187602 3.975152 -1.874371 0.085921 3.338568 2.300787 -0.357472 -3.250835 -3.583200 0.000000 0.000000 0.000000 -0.208959 1.809091 2.777015 -0.045525 2.749445 -2.185091 -0.094359 -3.746529 -1.017991 0.000000 0.000000 0.000000 -0.813211 2.140603 -2.558641 -1.001792 -0.733501 0.357584 -0.882476 -3.027192 -1.186899 0.000000 0.000000 0.000000 -0.005054 2.183090 -0.158426 -0.161079 -3.981148 -0.982255 -0.001393 2.148278 0.133743 0.000000 0.000000 0.000000 
-2310.607422 793.158203 1098.636963 3.931880 0.804841 1.788452 -1.639990 -2.475512 -2.104902 -1.514444 0.455368 0.276452 -1.554900 -0.572483 -0.298410 -2.129910 -3.522299 6.014597 0.000000 0.000000 0.000000 0.219323 3.994788 -1.811220 0.084586 3.373842 2.300040 -0.358293 -3.254772 -3.592567 0.000000 0.000000 0.000000 -0.226606 1.748792 2.611017 -0.041457 2.647541 -2.106125 -0.091001 -3.685568 -0.985773 0.000000 0.000000 0.000000 -0.798893 2.200679 -2.675804 -1.020611 -0.770886 0.671686 -0.887018 -2.995512 -1.180741 0.000000 0.000000 0.000000 0.037255 2.199755 -0.036291 -0.098839 -3.870754 -1.202193 0.033376 1.987825 0.139475 0.000000 0.000000 0.000000 
-2310.597412 793.302368 1098.381958 3.888864 0.762099 1.753210 -1.646447 -2.496213 -2.083925 -1.520989 0.454358 0.275916 -1.561238 -0.566087 -0.298281 -2.120106 -3.487470 5.993420 0.000000 0.000000 0.000000 0.249480 4.016120 -1.753264 0.082705 3.410433 2.295537 -0.358988 -3.264492 -3.602153 0.000000 0.000000 0.000000 -0.241883 1.693547 2.456653 -0.037836 2.553312 -2.031951 -0.087730 -3.625072 -0.953536 0.000000 0.000000 0.000000 -0.786698 2.257853 -2.775936 -1.037372 -0.803968 0.949024 -0.891191 -2.963940 -1.174434 0.000000 0.000000 0.000000 0.074274 2.215224 0.075470 -0.043701 -3.763945 -1.397086 0.063531 1.834246 0.143543 0.000000 0.000000 0.000000 
-2310.583252 793.414856 1098.162964 3.856900 0.722645 1.719537 -1.652479 -2.516126 -2.060313 -1.527338 0.455240 0.270624 -1.567169 -0.561955 -0.295317 -2.113311 -3.457125 5.980257 0.000000 0.000000 0.000000 0.271245 4.040975 -1.700074 0.079887 3.449572 2.284476 -0.359474 -3.284676 -3.612307 0.000000 0.000000 0.000000 -0.261345 1.643672 2.321688 -0.034937 2.470456 -1.967395 -0.084586 -3.563011 -0.921748 0.000000 0.000000 0.000000 -0.777717 2.310037 -2.851299 -1.051269 -0.831182 1.173080 -0.895025 -2.933122 -1.168161 0.000000 0.000000 0.000000 0.103487 2.227279 0.172575 0.001108 -3.661978 -1.556391 0.086818 1.690838 0.145130 0.000000 0.000000 0.000000 
-2310.566406 793.507446 1097.967041 3.831984 0.684704 1.686673 -1.658771 -2.533577 -2.036394 -1.533978 0.456947 0.265346 -1.573434 -0.560815 -0.291665 -2.108197 -3.426622 5.972172 0.000000 0.000000 0.000000 0.289236 4.067425 -1.651308 0.076480 3.489761 2.269100 -0.359863 -3.310213 -3.622815 0.000000 0.000000 0.000000 -0.280661 1.598647 2.198972 -0.032418 2.395712 -1.908560 -0.081446 -3.501774 -0.889228 0.000000 0.000000 0.000000 -0.770773 2.359373 -2.909329 -1.062979 -0.854137 1.360308 -0.898431 -2.902760 -1.161807 0.000000 0.000000 0.000000 0.127586 2.238272 0.259662 0.039000 -3.564176 -1.691044 0.105595 1.554079 0.145088 0.000000 0.000000 0.000000 
-2310.543213 793.596497 1097.781982 3.808612 0.646408 1.654129 -1.664380 -2.548327 -2.011286 -1.540104 0.458819 0.257688 -1.579034 -0.559082 -0.286541 -2.103030 -3.394549 5.964156 0.000000 0.000000 0.000000 0.304939 4.089484 -1.605041 0.072377 3.526010 2.246568 -0.360211 -3.331286 -3.631903 0.000000 0.000000 0.000000 -0.298639 1.557289 2.082006 -0.029770 2.325453 -1.849326 -0.078122 -3.445169 -0.854105 0.000000 0.000000 0.000000 -0.764240 2.407823 -2.957071 -1.072618 -0.873297 1.525806 -0.900755 -2.874104 -1.155406 0.000000 0.000000 0.000000 0.149332 2.251530 0.339013 0.073067 -3.471146 -1.807966 0.122364 1.423856 0.144543 0.000000 0.000000 0.000000 
-2310.511963 793.685181 1097.607056 3.785386 0.606123 1.620924 -1.669697 -2.557329 -1.987444 -1.545921 0.459419 0.252658 -1.584433 -0.556320 -0.282673 -2.098050 -3.359498 5.957513 0.000000 0.000000 0.000000 0.318827 4.104368 -1.559078 0.067197 3.556647 2.212895 -0.360291 -3.344512 -3.636990 0.000000 0.000000 0.000000 -0.313401 1.520674 1.969073 -0.026693 2.259810 -1.787795 -0.074339 -3.397461 -0.813368 0.000000 0.000000 0.000000 -0.757591 2.457375 -2.994530 -1.079788 -0.889473 1.671531 -0.901579 -2.845663 -1.148381 0.000000 0.000000 0.000000 0.169361 2.269546 0.411401 0.103878 -3.383818 -1.907149 0.137720 1.300923 0.143812 0.000000 0.000000 0.000000 
-2310.474609 793.770386 1097.443970 3.763396 0.565416 1.587750 -1.674535 -2.562342 -1.961912 -1.551510 0.458016 0.245270 -1.589395 -0.551581 -0.277498 -2.093450 -3.324187 5.952081 0.000000 0.000000 0.000000 0.331250 4.114349 -1.515517 0.061292 3.583047 2.171730 -0.360260 -3.352803 -3.639956 0.000000 0.000000 0.000000 -0.326012 1.487666 1.862069 -0.023466 2.198571 -1.726403 -0.070338 -3.354923 -0.769757 0.000000 0.000000 0.000000 -0.751026 2.506013 -3.021362 -1.084519 -0.901839 1.795315 -0.901011 -2.818313 -1.141009 0.000000 0.000000 0.000000 0.187371 2.289961 0.476392 0.131215 -3.301373 -1.988854 0.151345 1.183862 0.142664 0.000000 0.000000 0.000000 
-2310.432617 793.849854 1097.288940 3.742998 0.525608 1.556841 -1.678607 -2.568867 -1.940354 -1.556030 0.459117 0.241126 -1.593554 -0.548485 -0.274033 -2.088929 -3.284988 5.947647 0.000000 0.000000 0.000000 0.343085 4.122043 -1.472854 0.054969 3.607554 2.126962 -0.360234 -3.357768 -3.641907 0.000000 0.000000 0.000000 -0.338402 1.457186 1.759224 -0.020027 2.140007 -1.661557 -0.066600 -3.313561 -0.728868 0.000000 0.000000 0.000000 -0.746182 2.552690 -3.043433 -1.089597 -0.911671 1.905859 -0.901336 -2.793095 -1.134594 0.000000 0.000000 0.000000 0.203591 2.311010 0.535005 0.155772 -3.223449 -2.060198 0.163414 1.073234 0.141213 0.000000 0.000000 0.000000 
-2310.384277 793.925842 1097.141968 3.723754 0.486543 1.528226 -1.680818 -2.575687 -1.920537 -1.558644 0.458974 0.237170 -1.595854 -0.546481 -0.271589 -2.084560 -3.240564 5.944569 0.000000 0.000000 0.000000 0.352110 4.128414 -1.431507 0.048259 3.630614 2.078966 -0.360253 -3.358835 -3.643121 0.000000 0.000000 0.000000 -0.353884 1.429203 1.660751 -0.016274 2.084328 -1.591168 -0.063352 -3.272593 -0.693352 0.000000 0.000000 0.000000 -0.742636 2.597309 -3.060915 -1.094744 -0.918371 2.004701 -0.902148 -2.771540 -1.129353 0.000000 0.000000 0.000000 0.218501 2.333008 0.587343 0.178086 -3.149746 -2.122197 0.174337 0.968414 0.139606 0.000000 0.000000 0.000000 
-2310.331543 793.996155 1097.004028 3.705661 0.449086 1.501785 -1.682324 -2.584774 -1.903295 -1.560391 0.460459 0.234048 -1.597356 -0.544098 -0.269496 -2.080506 -3.193334 5.943077 0.000000 0.000000 0.000000 0.361288 4.131844 -1.390627 0.041088 3.651400 2.026929 -0.360345 -3.356938 -3.643957 0.000000 0.000000 0.000000 -0.368719 1.403343 1.566139 -0.012301 2.030807 -1.517439 -0.060331 -3.232858 -0.660205 0.000000 0.000000 0.000000 -0.740407 2.638977 -3.073659 -1.099871 -0.922193 2.090529 -0.903490 -2.751907 -1.124851 0.000000 0.000000 0.000000 0.231832 2.354905 0.633365 0.197862 -3.080505 -2.173992 0.183896 0.869527 0.137752 0.000000 0.000000 0.000000 
-2310.284668 794.062012 1096.866943 3.691171 0.413671 1.477613 -1.683520 -2.590760 -1.886572 -1.561866 0.460497 0.231661 -1.598585 -0.541799 -0.267206 -2.076105 -3.145944 5.940319 0.000000 0.000000 0.000000 0.366536 4.134580 -1.352111 0.034063 3.670289 1.975744 -0.360394 -3.357503 -3.644996 0.000000 0.000000 0.000000 -0.382583 1.378462 1.473590 -0.008532 1.979021 -1.446811 -0.057390 -3.194965 -0.627693 0.000000 0.000000 0.000000 -0.743149 2.678322 -3.085760 -1.109350 -0.926228 2.168702 -0.909541 -2.730681 -1.122060 0.000000 0.000000 0.000000 0.243239 2.374833 0.675163 0.215198 -3.014269 -2.220414 0.191745 0.774927 0.135391 0.000000 0.000000 0.000000 
-2310.248291 794.125000 1096.730957 3.680994 0.381729 1.455850 -1.684902 -2.595065 -1.868784 -1.563621 0.459429 0.229137 -1.600080 -0.538101 -0.265812 -2.071521 -3.097263 5.937216 0.000000 0.000000 0.000000 0.369305 4.136154 -1.315233 0.027251 3.687043 1.926225 -0.360514 -3.363453 -3.647815 0.000000 0.000000 0.000000 -0.395134 1.353119 1.382811 -0.004976 1.927285 -1.378623 -0.054505 -3.157448 -0.595589 0.000000 0.000000 0.000000 -0.749472 2.714390 -3.096980 -1.121885 -0.931628 2.240777 -0.918822 -2.712719 -1.121577 0.000000 0.000000 0.000000 0.252205 2.390634 0.712647 0.229673 -2.950459 -2.261891 0.197412 0.684410 0.132297 0.000000 0.000000 0.000000 
-2310.215820 794.182739 1096.597046 3.674607 0.352925 1.436305 -1.686893 -2.599212 -1.851270 -1.565994 0.458109 0.226739 -1.602168 -0.533679 -0.264034 -2.066727 -3.048365 5.933415 0.000000 0.000000 0.000000 0.370941 4.136497 -1.280166 0.020564 3.701955 1.877427 -0.360677 -3.371673 -3.651492 0.000000 0.000000 0.000000 -0.404907 1.329022 1.294145 -0.001584 1.877205 -1.313286 -0.051717 -3.122268 -0.564402 0.000000 0.000000 0.000000 -0.760841 2.747055 -3.107608 -1.138916 -0.937038 2.305738 -0.932921 -2.693362 -1.122906 0.000000 0.000000 0.000000 0.259108 2.403388 0.746165 0.241633 -2.889702 -2.298374 0.201259 0.597994 0.128636 0.000000 0.000000 0.000000 
